<svg width="40" height="45" viewBox="0 0 40 45" fill="none" xmlns="http://www.w3.org/2000/svg">
<path d="M33.9 16.0914C37.0412 17.905 38.6118 18.8118 39.2768 19.9099C40.2411 21.502 40.2411 23.498 39.2768 25.0901C38.6118 26.1882 37.0412 27.095 33.9 28.9086L11.85 41.6392C8.70881 43.4527 7.13821 44.3595 5.85471 44.3864C3.99376 44.4254 2.26519 43.4274 1.36847 41.7963C0.75 40.6713 0.75 38.8577 0.75 35.2306V9.76944C0.75 6.1423 0.75 4.32872 1.36847 3.20374C2.26519 1.57261 3.99376 0.57462 5.85471 0.613602C7.13821 0.640487 8.70881 1.54727 11.85 3.36084L33.9 16.0914Z" fill="white"/>
</svg>
