<svg width="123" height="32" viewBox="0 0 123 32" fill="none" xmlns="http://www.w3.org/2000/svg">
<path d="M38.0919 31.656C37.7505 31.656 37.4756 31.5517 37.267 31.3431C37.0773 31.1535 36.9825 30.888 36.9825 30.5467V17.1209C37.0015 15.6418 37.3523 14.3144 38.035 13.1387C38.7366 11.944 39.6753 11.0053 40.851 10.3227C42.0456 9.64 43.3825 9.29866 44.8616 9.29866C46.3787 9.29866 47.7345 9.64948 48.9292 10.3511C50.1239 11.0338 51.0625 11.9724 51.7452 13.1671C52.4468 14.3618 52.7976 15.7176 52.7976 17.2347C52.7976 18.7327 52.4563 20.0791 51.7736 21.2738C51.1099 22.4684 50.1997 23.4166 49.043 24.1182C47.8862 24.8009 46.5778 25.1422 45.1176 25.1422C43.8471 25.1422 42.6904 24.8767 41.6474 24.3458C40.6234 23.7959 39.7985 23.0753 39.1727 22.184V30.5467C39.1727 30.888 39.0684 31.1535 38.8599 31.3431C38.6702 31.5517 38.4142 31.656 38.0919 31.656ZM44.8616 23.1511C45.9615 23.1511 46.9476 22.8951 47.8199 22.3831C48.6922 21.8711 49.3748 21.1695 49.8679 20.2782C50.3799 19.368 50.6359 18.3535 50.6359 17.2347C50.6359 16.0969 50.3799 15.0824 49.8679 14.1911C49.3748 13.2999 48.6922 12.5982 47.8199 12.0862C46.9476 11.5553 45.9615 11.2898 44.8616 11.2898C43.7807 11.2898 42.8041 11.5553 41.9319 12.0862C41.0596 12.5982 40.3769 13.2999 39.8839 14.1911C39.3908 15.0824 39.1443 16.0969 39.1443 17.2347C39.1443 18.3535 39.3908 19.368 39.8839 20.2782C40.3769 21.1695 41.0596 21.8711 41.9319 22.3831C42.8041 22.8951 43.7807 23.1511 44.8616 23.1511ZM57.7763 18.6569C57.435 18.6569 57.16 18.5526 56.9514 18.344C56.7618 18.1354 56.667 17.8699 56.667 17.5476V3.89422C56.667 3.55289 56.7618 3.2874 56.9514 3.09777C57.16 2.88918 57.435 2.78489 57.7763 2.78489C58.0987 2.78489 58.3547 2.88918 58.5443 3.09777C58.7529 3.2874 58.8572 3.55289 58.8572 3.89422V17.5476C58.8572 17.8699 58.7529 18.1354 58.5443 18.344C58.3547 18.5526 58.0987 18.6569 57.7763 18.6569ZM70.0074 25C69.685 25 69.4196 24.8957 69.211 24.6871C69.0024 24.4785 68.8981 24.2225 68.8981 23.9191V16.5236C68.8981 15.3479 68.6705 14.3807 68.2154 13.6222C67.7793 12.8637 67.1724 12.2948 66.395 11.9156C65.6364 11.5363 64.7736 11.3467 63.8065 11.3467C62.8773 11.3467 62.0335 11.5268 61.275 11.8871C60.5354 12.2474 59.9476 12.7404 59.5114 13.3662C59.0753 13.992 58.8572 14.7031 58.8572 15.4996H57.2927C57.3307 14.3049 57.653 13.243 58.2599 12.3138C58.8667 11.3656 59.6726 10.6261 60.6776 10.0951C61.6827 9.54518 62.8015 9.27022 64.0341 9.27022C65.3804 9.27022 66.5846 9.55466 67.6465 10.1236C68.7084 10.6735 69.5428 11.4889 70.1496 12.5698C70.7754 13.6507 71.0883 14.9686 71.0883 16.5236V23.9191C71.0883 24.2225 70.984 24.4785 70.7754 24.6871C70.5668 24.8957 70.3108 25 70.0074 25ZM57.7763 25C57.435 25 57.16 24.9052 56.9514 24.7156C56.7618 24.507 56.667 24.2415 56.667 23.9191V10.5502C56.667 10.2089 56.7618 9.94341 56.9514 9.75378C57.16 9.54518 57.435 9.44089 57.7763 9.44089C58.0987 9.44089 58.3547 9.54518 58.5443 9.75378C58.7529 9.94341 58.8572 10.2089 58.8572 10.5502V23.9191C58.8572 24.2415 58.7529 24.507 58.5443 24.7156C58.3547 24.9052 58.0987 25 57.7763 25ZM82.573 25.1422C81.0559 25.1422 79.7001 24.8009 78.5054 24.1182C77.3107 23.4356 76.3721 22.4969 75.6894 21.3022C75.0067 20.1076 74.6654 18.7517 74.6654 17.2347C74.6654 15.6987 75.0067 14.3333 75.6894 13.1387C76.3721 11.944 77.3107 11.0053 78.5054 10.3227C79.7001 9.64 81.0559 9.29866 82.573 9.29866C84.09 9.29866 85.4364 9.64 86.6121 10.3227C87.8067 11.0053 88.7454 11.944 89.4281 13.1387C90.1107 14.3333 90.4616 15.6987 90.4805 17.2347C90.4805 18.7517 90.1297 20.1076 89.4281 21.3022C88.7454 22.4969 87.8067 23.4356 86.6121 24.1182C85.4364 24.8009 84.09 25.1422 82.573 25.1422ZM82.573 23.1511C83.6728 23.1511 84.6589 22.8951 85.5312 22.3831C86.4035 21.8711 87.0862 21.1695 87.5792 20.2782C88.0722 19.387 88.3187 18.3724 88.3187 17.2347C88.3187 16.0969 88.0722 15.0824 87.5792 14.1911C87.0862 13.2809 86.4035 12.5698 85.5312 12.0578C84.6589 11.5458 83.6728 11.2898 82.573 11.2898C81.4731 11.2898 80.487 11.5458 79.6147 12.0578C78.7425 12.5698 78.0503 13.2809 77.5383 14.1911C77.0453 15.0824 76.7987 16.0969 76.7987 17.2347C76.7987 18.3724 77.0453 19.387 77.5383 20.2782C78.0503 21.1695 78.7425 21.8711 79.6147 22.3831C80.487 22.8951 81.4731 23.1511 82.573 23.1511ZM100.401 25C99.3957 25 98.495 24.763 97.6985 24.2889C96.921 23.8148 96.3047 23.1701 95.8496 22.3547C95.3945 21.5203 95.167 20.5721 95.167 19.5102V5.60089C95.167 5.27852 95.2618 5.01303 95.4514 4.80444C95.66 4.59585 95.9255 4.49155 96.2479 4.49155C96.5702 4.49155 96.8357 4.59585 97.0443 4.80444C97.2529 5.01303 97.3572 5.27852 97.3572 5.60089V19.5102C97.3572 20.4773 97.6416 21.2738 98.2105 21.8996C98.7794 22.5064 99.5095 22.8098 100.401 22.8098H101.169C101.472 22.8098 101.719 22.9141 101.908 23.1227C102.098 23.3313 102.193 23.5967 102.193 23.9191C102.193 24.2415 102.079 24.507 101.851 24.7156C101.624 24.9052 101.339 25 100.998 25H100.401ZM93.3181 11.9156C93.0336 11.9156 92.7966 11.8302 92.607 11.6596C92.4173 11.4699 92.3225 11.2424 92.3225 10.9769C92.3225 10.6924 92.4173 10.4649 92.607 10.2942C92.7966 10.1046 93.0336 10.0098 93.3181 10.0098H100.571C100.856 10.0098 101.093 10.1046 101.283 10.2942C101.472 10.4649 101.567 10.6924 101.567 10.9769C101.567 11.2424 101.472 11.4699 101.283 11.6596C101.093 11.8302 100.856 11.9156 100.571 11.9156H93.3181ZM112.414 25.1422C110.897 25.1422 109.541 24.8009 108.347 24.1182C107.152 23.4356 106.213 22.4969 105.531 21.3022C104.848 20.1076 104.507 18.7517 104.507 17.2347C104.507 15.6987 104.848 14.3333 105.531 13.1387C106.213 11.944 107.152 11.0053 108.347 10.3227C109.541 9.64 110.897 9.29866 112.414 9.29866C113.931 9.29866 115.277 9.64 116.453 10.3227C117.648 11.0053 118.587 11.944 119.269 13.1387C119.952 14.3333 120.303 15.6987 120.322 17.2347C120.322 18.7517 119.971 20.1076 119.269 21.3022C118.587 22.4969 117.648 23.4356 116.453 24.1182C115.277 24.8009 113.931 25.1422 112.414 25.1422ZM112.414 23.1511C113.514 23.1511 114.5 22.8951 115.372 22.3831C116.245 21.8711 116.927 21.1695 117.42 20.2782C117.913 19.387 118.16 18.3724 118.16 17.2347C118.16 16.0969 117.913 15.0824 117.42 14.1911C116.927 13.2809 116.245 12.5698 115.372 12.0578C114.5 11.5458 113.514 11.2898 112.414 11.2898C111.314 11.2898 110.328 11.5458 109.456 12.0578C108.584 12.5698 107.891 13.2809 107.379 14.1911C106.886 15.0824 106.64 16.0969 106.64 17.2347C106.64 18.3724 106.886 19.387 107.379 20.2782C107.891 21.1695 108.584 21.8711 109.456 22.3831C110.328 22.8951 111.314 23.1511 112.414 23.1511Z" fill="white"/>
<path d="M22.5186 9.63477H6.67188V25.4814L0 18.8096V2.96289H15.8467L22.5186 9.63477Z" fill="#CCCCCC"/>
<path d="M0 18.8096L15.8467 18.8096L15.8467 2.96289L22.5186 9.63477L22.5186 25.4814L6.67188 25.4814L0 18.8096Z" fill="black"/>
</svg>
